<svg xmlns="http://www.w3.org/2000/svg" xmlns:xlink="http://www.w3.org/1999/xlink" width="250" height="250"><defs><svg id="a" width="250" height="250" data-image="63713" transform="translate(-125 -125)"><svg xmlns="http://www.w3.org/2000/svg" xmlns:xlink="http://www.w3.org/1999/xlink" fill="none" stroke="#c7d3e040" stroke-width="1.5" viewBox="0 0 24 24"><path stroke-linecap="round" stroke-linejoin="round" d="m10 16-1 3-1-3a5 5 0 0 0-3-3l-3-1 3-1a5 5 0 0 0 3-3l1-3 1 3a5 5 0 0 0 3 3l3 1-3 1a5 5 0 0 0-3 3z"/></svg></svg><svg id="b" width="136" height="136" data-image="66112" transform="translate(70 -34)"><svg xmlns="http://www.w3.org/2000/svg" xmlns:xlink="http://www.w3.org/1999/xlink" fill="none" stroke="#c7d3e040" stroke-width="1.5" viewBox="0 0 24 24"><path stroke-linecap="round" stroke-linejoin="round" d="m10 16-1 3-1-3a5 5 0 0 0-3-3l-3-1 3-1a5 5 0 0 0 3-3l1-3 1 3a5 5 0 0 0 3 3l3 1-3 1a5 5 0 0 0-3 3z"/></svg></svg><svg id="c" width="192.7" height="192.7" data-image="48316" transform="translate(-32 3)"><svg xmlns="http://www.w3.org/2000/svg" xmlns:xlink="http://www.w3.org/1999/xlink" fill="none" stroke="#c7d3e040" stroke-width="1.5" viewBox="0 0 24 24"><path stroke-linecap="round" stroke-linejoin="round" d="m10 16-1 3-1-3a5 5 0 0 0-3-3l-3-1 3-1a5 5 0 0 0 3-3l1-3 1 3a5 5 0 0 0 3 3l3 1-3 1a5 5 0 0 0-3 3z"/></svg></svg><svg id="d" width="116" height="116" data-image="43440" transform="translate(33 169)"><svg xmlns="http://www.w3.org/2000/svg" xmlns:xlink="http://www.w3.org/1999/xlink" fill="none" stroke="#c7d3e040" stroke-width="1.5" viewBox="0 0 24 24"><path stroke-linecap="round" stroke-linejoin="round" d="m10 16-1 3-1-3a5 5 0 0 0-3-3l-3-1 3-1a5 5 0 0 0 3-3l1-3 1 3a5 5 0 0 0 3 3l3 1-3 1a5 5 0 0 0-3 3z"/></svg></svg><svg id="e" width="250" height="250" data-image="40147" transform="translate(69 3)"><svg xmlns="http://www.w3.org/2000/svg" xmlns:xlink="http://www.w3.org/1999/xlink" fill="none" stroke="#c7d3e040" stroke-width="1.5" viewBox="0 0 24 24"><path stroke-linecap="round" stroke-linejoin="round" d="m10 16-1 3-1-3a5 5 0 0 0-3-3l-3-1 3-1a5 5 0 0 0 3-3l1-3 1 3a5 5 0 0 0 3 3l3 1-3 1a5 5 0 0 0-3 3z"/></svg></svg><svg id="f" width="96" height="96" data-image="72714" transform="translate(-17 140)"><svg xmlns="http://www.w3.org/2000/svg" xmlns:xlink="http://www.w3.org/1999/xlink" fill="none" stroke="#c7d3e040" stroke-width="1.5" viewBox="0 0 24 24"><path stroke-linecap="round" stroke-linejoin="round" d="m10 16-1 3-1-3a5 5 0 0 0-3-3l-3-1 3-1a5 5 0 0 0 3-3l1-3 1 3a5 5 0 0 0 3 3l3 1-3 1a5 5 0 0 0-3 3z"/></svg></svg></defs><path fill="rgba(255, 255, 255, 0)" d="M0 0h250v250H0z"/><use xlink:href="#a" transform="translate(-250 -250)"/><use xlink:href="#a" transform="translate(0 -250)"/><use xlink:href="#a" transform="translate(250 -250)"/><use xlink:href="#a" transform="translate(-250)"/><use xlink:href="#a"/><use xlink:href="#a" transform="translate(250)"/><use xlink:href="#a" transform="translate(-250 250)"/><use xlink:href="#a" transform="translate(0 250)"/><use xlink:href="#a" transform="translate(250 250)"/><use xlink:href="#b" transform="translate(-250 -250)"/><use xlink:href="#b" transform="translate(0 -250)"/><use xlink:href="#b" transform="translate(250 -250)"/><use xlink:href="#b" transform="translate(-250)"/><use xlink:href="#b"/><use xlink:href="#b" transform="translate(250)"/><use xlink:href="#b" transform="translate(-250 250)"/><use xlink:href="#b" transform="translate(0 250)"/><use xlink:href="#b" transform="translate(250 250)"/><use xlink:href="#c" transform="translate(-250 -250)"/><use xlink:href="#c" transform="translate(0 -250)"/><use xlink:href="#c" transform="translate(250 -250)"/><use xlink:href="#c" transform="translate(-250)"/><use xlink:href="#c"/><use xlink:href="#c" transform="translate(250)"/><use xlink:href="#c" transform="translate(-250 250)"/><use xlink:href="#c" transform="translate(0 250)"/><use xlink:href="#c" transform="translate(250 250)"/><use xlink:href="#d" transform="translate(-250 -250)"/><use xlink:href="#d" transform="translate(0 -250)"/><use xlink:href="#d" transform="translate(250 -250)"/><use xlink:href="#d" transform="translate(-250)"/><use xlink:href="#d"/><use xlink:href="#d" transform="translate(250)"/><use xlink:href="#d" transform="translate(-250 250)"/><use xlink:href="#d" transform="translate(0 250)"/><use xlink:href="#d" transform="translate(250 250)"/><use xlink:href="#e" transform="translate(-250 -250)"/><use xlink:href="#e" transform="translate(0 -250)"/><use xlink:href="#e" transform="translate(250 -250)"/><use xlink:href="#e" transform="translate(-250)"/><use xlink:href="#e"/><use xlink:href="#e" transform="translate(250)"/><use xlink:href="#e" transform="translate(-250 250)"/><use xlink:href="#e" transform="translate(0 250)"/><use xlink:href="#e" transform="translate(250 250)"/><use xlink:href="#f" transform="translate(-250 -250)"/><use xlink:href="#f" transform="translate(0 -250)"/><use xlink:href="#f" transform="translate(250 -250)"/><use xlink:href="#f" transform="translate(-250)"/><use xlink:href="#f"/><use xlink:href="#f" transform="translate(250)"/><use xlink:href="#f" transform="translate(-250 250)"/><use xlink:href="#f" transform="translate(0 250)"/><use xlink:href="#f" transform="translate(250 250)"/></svg>
